<svg width="500" height="500" viewBox="0 0 500 500" fill="none" xmlns="http://www.w3.org/2000/svg">
<rect width="500" height="500" fill="#1E1E1E"/>
<g clip-path="url(#clip0_0_1)">
<rect width="500" height="500" fill="white"/>
<path d="M260.625 298.465C261.177 301.17 259.431 303.811 256.726 304.364L173.428 321.367C170.722 321.919 168.081 320.174 167.529 317.468L152.983 246.208C152.581 244.242 153.394 242.226 155.047 241.089L231.128 188.728C234.079 186.698 238.145 188.338 238.861 191.847L260.625 298.465ZM339.55 153.288C341.516 153.687 343.054 155.223 343.455 157.189L367.826 276.582C368.378 279.288 366.633 281.929 363.927 282.481L280.629 299.484C277.924 300.037 275.282 298.291 274.73 295.585L243.142 140.835C242.425 137.325 245.524 134.222 249.034 134.934L339.55 153.288ZM233.561 165.88C233.962 167.845 233.149 169.861 231.496 170.998L155.416 223.359C152.465 225.39 148.398 223.75 147.682 220.24L116.358 66.7846C115.806 64.079 117.551 61.4379 120.257 60.8857L203.555 43.8825C206.261 43.3302 208.902 45.0758 209.454 47.7815L233.561 165.88ZM338.154 131.221C338.871 134.731 335.772 137.833 332.262 137.121L241.746 118.767C239.78 118.368 238.242 116.833 237.841 114.867L223.56 44.9022C223.007 42.1965 224.753 39.5555 227.459 39.0032L310.756 22C313.462 21.4477 316.103 23.1934 316.655 25.899L338.154 131.221Z" fill="#00AE42"/>
<path d="M192.847 331.754L208.43 357.879C179.483 371.459 159.464 397.482 159.464 427.896H346.344C346.344 397.604 326.325 371.48 297.4 357.879L312.982 331.754C312.982 331.754 314.097 330.707 311.868 329.66C310.753 328.613 309.639 330.707 309.639 330.707L292.942 356.842C279.997 351.375 265.972 348.528 251.779 348.486C237.586 348.528 223.561 351.375 210.615 356.842L193.951 330.717C193.951 330.717 192.847 329.68 191.722 329.68C191.839 330.474 192.231 331.21 192.836 331.774L192.847 331.754ZM208.538 382.946C212.866 382.946 217.433 387.012 217.433 391.302C217.433 395.591 213.104 399.657 208.538 399.657C207.365 399.674 206.2 399.469 205.113 399.055C204.026 398.641 203.039 398.026 202.209 397.247C201.38 396.468 200.725 395.54 200.284 394.519C199.843 393.497 199.625 392.404 199.643 391.302C199.625 390.2 199.843 389.106 200.284 388.085C200.725 387.063 201.38 386.136 202.209 385.357C203.039 384.577 204.026 383.963 205.113 383.548C206.2 383.134 207.365 382.929 208.538 382.946ZM297.53 382.946C301.858 382.946 306.425 387.012 306.425 391.302C306.425 395.591 302.097 399.657 297.53 399.657C296.357 399.674 295.193 399.469 294.106 399.055C293.018 398.641 292.031 398.026 291.201 397.247C290.372 396.468 289.717 395.54 289.277 394.519C288.836 393.497 288.618 392.404 288.635 391.302C288.618 390.2 288.836 389.106 289.277 388.085C289.717 387.063 290.372 386.136 291.201 385.357C292.031 384.577 293.018 383.963 294.106 383.548C295.193 383.134 296.357 382.929 297.53 382.946ZM158.35 438.346L158.35 572.12C158.35 578.392 167.245 587.794 173.932 587.794H196.18V633.772C196.18 645.258 205.075 654.671 216.199 654.671C227.323 654.671 236.218 645.268 236.218 633.772V587.774H268.465V633.751C268.465 645.238 277.36 654.651 288.484 654.651C299.608 654.651 308.503 645.248 308.503 633.751V587.774H330.751C337.427 587.774 346.333 579.418 346.333 572.099L346.333 438.346H158.35Z" fill="#00AE42"/>
<path d="M85.1433 372.786C95.2251 368.085 107.26 372.848 112.119 383.267L145.684 455.247C150.538 465.657 146.455 477.947 136.373 482.649C126.291 487.35 114.256 482.587 109.397 472.168L75.8326 400.188C70.9781 389.778 75.0615 377.487 85.1433 372.786V372.786Z" fill="#00AE42"/>
<path d="M415.731 372.393C405.649 367.692 393.614 372.455 388.755 382.874L355.191 454.854C350.336 465.264 354.42 477.554 364.501 482.256C374.583 486.957 386.618 482.194 391.477 471.774L425.042 399.795C429.896 389.385 425.813 377.094 415.731 372.393V372.393Z" fill="#00AE42"/>
</g>
<defs>
<clipPath id="clip0_0_1">
<rect width="500" height="500" fill="white"/>
</clipPath>
</defs>
</svg>
